<?xml version="1.0" standalone="no"?>
<!DOCTYPE svg PUBLIC "-//W3C//DTD SVG 20010904//EN"
 "http://www.w3.org/TR/2001/REC-SVG-20010904/DTD/svg10.dtd">
<svg version="1.0" xmlns="http://www.w3.org/2000/svg"
 width="150.000000pt" height="150.000000pt" viewBox="0 0 150.000000 150.000000"
 preserveAspectRatio="xMidYMid meet">
<metadata>
Created by potrace 1.10, written by Peter Selinger 2001-2011
</metadata>
<g transform="translate(0.000000,150.000000) scale(0.100000,-0.100000)"
fill="#000000" stroke="none">
<path d="M580 1409 c-36 -10 -81 -24 -100 -31 -155 -58 -320 -223 -378 -378
-68 -185 -68 -335 0 -520 44 -118 171 -266 283 -331 230 -131 480 -131 710 0
77 44 192 159 236 236 131 230 131 480 0 710 -65 112 -213 239 -331 283 -148
55 -298 66 -420 31z m270 -49 c19 -5 51 -13 70 -18 53 -14 150 -61 195 -96
329 -255 339 -724 22 -993 -50 -42 -156 -100 -211 -114 -17 -4 -49 -13 -71
-18 -51 -13 -179 -13 -230 0 -22 5 -54 14 -71 18 -55 14 -161 72 -211 114 -99
84 -178 202 -205 307 -5 19 -13 51 -18 70 -12 45 -12 175 0 220 5 19 13 51 18
70 48 186 235 373 422 422 19 5 49 13 65 18 41 11 182 12 225 0z"/>
<path d="M596 1001 c-129 -129 -149 -162 -101 -169 15 -2 47 24 109 88 49 49
92 90 97 90 5 0 10 -147 11 -327 l3 -328 25 0 25 0 3 328 c1 180 6 327 11 327
5 0 48 -41 97 -90 90 -92 124 -109 132 -66 5 22 -243 276 -268 276 -8 0 -73
-58 -144 -129z"/>
</g>
</svg>
